<mxfile host="app.diagrams.net" agent="Mozilla/5.0 (Windows NT 10.0; Win64; x64) AppleWebKit/537.36 (KHTML, like Gecko) Chrome/132.0.0.0 Safari/537.36 Edg/132.0.0.0" version="26.0.6">
  <diagram id="codeviz-diagram" name="System Diagram">
    <mxGraphModel dx="1426" dy="747" grid="1" gridSize="10" guides="1" tooltips="1" connect="1" arrows="1" fold="1" page="1" pageScale="1" pageWidth="1169" pageHeight="827" math="0" shadow="0">
      <root>
        <mxCell id="0" />
        <mxCell id="1" parent="0" />
        <mxCell id="subGraph2" value="" style="html=1;whiteSpace=wrap;container=1;fillColor=#dae8fc;strokeColor=#6c8ebf;dashed=1;fillOpacity=20;strokeWidth=2;containerType=none;recursiveResize=0;movable=1;resizable=1;autosize=0;dropTarget=0" parent="1" vertex="1">
          <mxGeometry x="32" y="187" width="440" height="895" as="geometry" />
        </mxCell>
        <mxCell id="subGraph0" value="" style="html=1;whiteSpace=wrap;container=1;fillColor=#dae8fc;strokeColor=#6c8ebf;dashed=1;fillOpacity=20;strokeWidth=2;containerType=none;recursiveResize=0;movable=1;resizable=1;autosize=0;dropTarget=0" parent="subGraph2" vertex="1">
          <mxGeometry x="50" y="195" width="276" height="440" as="geometry" />
        </mxCell>
        <mxCell id="AmadeusAPIClient" value="Amadeus API Client&lt;br&gt;(Axios)" style="rounded=1;whiteSpace=wrap;html=1;fillColor=#f5f5f5" parent="subGraph0" vertex="1">
          <mxGeometry x="76" y="120" width="120" height="60" as="geometry" />
        </mxCell>
        <mxCell id="TokenManager" value="Token Manager&lt;br&gt;(JavaScript)" style="rounded=1;whiteSpace=wrap;html=1;fillColor=#f5f5f5" parent="subGraph0" vertex="1">
          <mxGeometry x="60" y="340" width="120" height="60" as="geometry" />
        </mxCell>
        <mxCell id="subGraph0_label" value="API Integration Layer" style="edgeLabel;html=1;align=center;verticalAlign=middle;resizable=0;labelBackgroundColor=white;spacing=5" parent="subGraph2" vertex="1">
          <mxGeometry x="58" y="203" width="200" height="24" as="geometry" />
        </mxCell>
        <mxCell id="subGraph1" value="" style="html=1;whiteSpace=wrap;container=1;fillColor=#dae8fc;strokeColor=#6c8ebf;dashed=1;fillOpacity=20;strokeWidth=2;containerType=none;recursiveResize=0;movable=1;resizable=1;autosize=0;dropTarget=0" parent="subGraph2" vertex="1">
          <mxGeometry x="50" y="655" width="380" height="220" as="geometry">
            <mxRectangle x="50" y="655" width="50" height="40" as="alternateBounds" />
          </mxGeometry>
        </mxCell>
        <mxCell id="DateFormatter" value="Date Formatter&lt;br&gt;(JavaScript)" style="rounded=1;whiteSpace=wrap;html=1;fillColor=#f5f5f5" parent="subGraph1" vertex="1">
          <mxGeometry x="40" y="120" width="120" height="60" as="geometry" />
        </mxCell>
        <mxCell id="TokenStorage" value="Token Storage&lt;br&gt;(LocalStorage)" style="rounded=1;whiteSpace=wrap;html=1;fillColor=#f5f5f5" parent="subGraph1" vertex="1">
          <mxGeometry x="180" y="120" width="120" height="60" as="geometry" />
        </mxCell>
        <mxCell id="subGraph1_label" value="Utility Components" style="edgeLabel;html=1;align=center;verticalAlign=middle;resizable=0;labelBackgroundColor=white;spacing=5" parent="subGraph2" vertex="1">
          <mxGeometry x="126" y="663" width="304" height="24" as="geometry" />
        </mxCell>
        <mxCell id="FrontendApp" value="React Application&lt;br&gt;(React + Vite)" style="rounded=1;whiteSpace=wrap;html=1;fillColor=#f5f5f5" parent="subGraph2" vertex="1">
          <mxGeometry x="96" y="120" width="120" height="60" as="geometry" />
        </mxCell>
        <mxCell id="subGraph2_label" value="Frontend Application" style="edgeLabel;html=1;align=center;verticalAlign=middle;resizable=0;labelBackgroundColor=white;spacing=5" parent="1" vertex="1">
          <mxGeometry x="40" y="195" width="364" height="24" as="geometry" />
        </mxCell>
        <mxCell id="subGraph3" value="" style="html=1;whiteSpace=wrap;container=1;fillColor=#dae8fc;strokeColor=#6c8ebf;dashed=1;fillOpacity=20;strokeWidth=2;containerType=none;recursiveResize=0;movable=1;resizable=1;autosize=0;dropTarget=0" parent="1" vertex="1">
          <mxGeometry x="247.5" y="1162" width="380" height="220" as="geometry" />
        </mxCell>
        <mxCell id="AmadeusAPI" value="Amadeus API&lt;br&gt;(REST API)" style="rounded=1;whiteSpace=wrap;html=1;fillColor=#f5f5f5" parent="subGraph3" vertex="1">
          <mxGeometry x="42.5" y="160" width="120" height="60" as="geometry" />
        </mxCell>
        <mxCell id="OAuth" value="Amadeus OAuth Service&lt;br&gt;(OAuth 2.0)" style="rounded=1;whiteSpace=wrap;html=1;fillColor=#f5f5f5" parent="subGraph3" vertex="1">
          <mxGeometry x="180" y="120" width="120" height="60" as="geometry" />
        </mxCell>
        <mxCell id="subGraph3_label" value="External Systems" style="edgeLabel;html=1;align=center;verticalAlign=middle;resizable=0;labelBackgroundColor=white;spacing=5" parent="1" vertex="1">
          <mxGeometry x="255.5" y="1170" width="304" height="24" as="geometry" />
        </mxCell>
        <mxCell id="User" value="External User" style="rounded=1;whiteSpace=wrap;html=1;fillColor=#f5f5f5" parent="1" vertex="1">
          <mxGeometry x="108" y="12" width="120" height="60" as="geometry" />
        </mxCell>
        <mxCell id="edge-L_AmadeusAPIClient_AmadeusAPI_7" style="edgeStyle=orthogonalEdgeStyle;rounded=1;orthogonalLoop=1;jettySize=auto;html=1;strokeColor=#808080;strokeWidth=2;jumpStyle=arc;jumpSize=10;spacing=15;labelBackgroundColor=white;labelBorderColor=none" parent="1" edge="1">
          <mxGeometry relative="1" as="geometry">
            <mxPoint x="330" y="532" as="sourcePoint" />
            <mxPoint x="400" y="1320" as="targetPoint" />
          </mxGeometry>
        </mxCell>
        <mxCell id="edge-L_AmadeusAPIClient_AmadeusAPI_7_label" value="Makes API calls to" style="edgeLabel;html=1;align=center;verticalAlign=middle;resizable=0;points=[];" parent="edge-L_AmadeusAPIClient_AmadeusAPI_7" vertex="1" connectable="0">
          <mxGeometry x="-0.2" y="10" relative="1" as="geometry">
            <mxPoint as="offset" />
          </mxGeometry>
        </mxCell>
        <mxCell id="uZ3T_BSNHZ3lu3oaKZpX-1" value="Text" style="edgeLabel;html=1;align=center;verticalAlign=middle;resizable=0;points=[];" parent="edge-L_AmadeusAPIClient_AmadeusAPI_7" vertex="1" connectable="0">
          <mxGeometry x="0.8519" y="-1" relative="1" as="geometry">
            <mxPoint as="offset" />
          </mxGeometry>
        </mxCell>
        <mxCell id="edge-L_AmadeusAPIClient_LocationSearch_5" style="edgeStyle=orthogonalEdgeStyle;rounded=1;orthogonalLoop=1;jettySize=auto;html=1;strokeColor=#808080;strokeWidth=2;jumpStyle=arc;jumpSize=10;spacing=15;labelBackgroundColor=white;labelBorderColor=none" parent="1" source="AmadeusAPIClient" target="LocationSearch" edge="1">
          <mxGeometry relative="1" as="geometry" />
        </mxCell>
        <mxCell id="edge-L_AmadeusAPIClient_LocationSearch_5_label" value="Searches locations using" style="edgeLabel;html=1;align=center;verticalAlign=middle;resizable=0;points=[];" parent="edge-L_AmadeusAPIClient_LocationSearch_5" vertex="1" connectable="0">
          <mxGeometry x="-0.2" y="10" relative="1" as="geometry">
            <mxPoint as="offset" />
          </mxGeometry>
        </mxCell>
        <mxCell id="edge-L_AmadeusAPIClient_OAuth_6" style="edgeStyle=orthogonalEdgeStyle;rounded=1;orthogonalLoop=1;jettySize=auto;html=1;strokeColor=#808080;strokeWidth=2;jumpStyle=arc;jumpSize=10;spacing=15;labelBackgroundColor=white;labelBorderColor=none" parent="1" source="AmadeusAPIClient" target="OAuth" edge="1">
          <mxGeometry relative="1" as="geometry" />
        </mxCell>
        <mxCell id="edge-L_AmadeusAPIClient_OAuth_6_label" value="Authenticates via" style="edgeLabel;html=1;align=center;verticalAlign=middle;resizable=0;points=[];" parent="edge-L_AmadeusAPIClient_OAuth_6" vertex="1" connectable="0">
          <mxGeometry x="-0.2" y="10" relative="1" as="geometry">
            <mxPoint as="offset" />
          </mxGeometry>
        </mxCell>
        <mxCell id="edge-L_AmadeusAPIClient_TokenManager_2" style="edgeStyle=orthogonalEdgeStyle;rounded=1;orthogonalLoop=1;jettySize=auto;html=1;strokeColor=#808080;strokeWidth=2;jumpStyle=arc;jumpSize=10;spacing=15;labelBackgroundColor=white;labelBorderColor=none" parent="1" source="AmadeusAPIClient" target="TokenManager" edge="1">
          <mxGeometry relative="1" as="geometry" />
        </mxCell>
        <mxCell id="edge-L_AmadeusAPIClient_TokenManager_2_label" value="Manages tokens through" style="edgeLabel;html=1;align=center;verticalAlign=middle;resizable=0;points=[];" parent="edge-L_AmadeusAPIClient_TokenManager_2" vertex="1" connectable="0">
          <mxGeometry x="-0.2" y="10" relative="1" as="geometry">
            <mxPoint as="offset" />
          </mxGeometry>
        </mxCell>
        <mxCell id="edge-L_FrontendApp_AmadeusAPIClient_1" style="edgeStyle=orthogonalEdgeStyle;rounded=1;orthogonalLoop=1;jettySize=auto;html=1;strokeColor=#808080;strokeWidth=2;jumpStyle=arc;jumpSize=10;spacing=15;labelBackgroundColor=white;labelBorderColor=none" parent="1" source="FrontendApp" target="AmadeusAPIClient" edge="1">
          <mxGeometry relative="1" as="geometry" />
        </mxCell>
        <mxCell id="edge-L_FrontendApp_AmadeusAPIClient_1_label" value="Uses" style="edgeLabel;html=1;align=center;verticalAlign=middle;resizable=0;points=[];" parent="edge-L_FrontendApp_AmadeusAPIClient_1" vertex="1" connectable="0">
          <mxGeometry x="-0.2" y="10" relative="1" as="geometry">
            <mxPoint as="offset" />
          </mxGeometry>
        </mxCell>
        <mxCell id="edge-L_LocationSearch_TokenManager_9" style="edgeStyle=orthogonalEdgeStyle;rounded=1;orthogonalLoop=1;jettySize=auto;html=1;strokeColor=#808080;strokeWidth=2;jumpStyle=arc;jumpSize=10;spacing=15;labelBackgroundColor=white;labelBorderColor=none" parent="1" source="LocationSearch" target="TokenManager" edge="1">
          <mxGeometry relative="1" as="geometry" />
        </mxCell>
        <mxCell id="edge-L_LocationSearch_TokenManager_9_label" value="Uses" style="edgeLabel;html=1;align=center;verticalAlign=middle;resizable=0;points=[];" parent="edge-L_LocationSearch_TokenManager_9" vertex="1" connectable="0">
          <mxGeometry x="-0.2" y="10" relative="1" as="geometry">
            <mxPoint as="offset" />
          </mxGeometry>
        </mxCell>
        <mxCell id="edge-L_OAuth_AmadeusAPIClient_8" style="edgeStyle=orthogonalEdgeStyle;rounded=1;orthogonalLoop=1;jettySize=auto;html=1;strokeColor=#808080;strokeWidth=2;jumpStyle=arc;jumpSize=10;spacing=15;labelBackgroundColor=white;labelBorderColor=none" parent="1" source="OAuth" target="AmadeusAPIClient" edge="1">
          <mxGeometry relative="1" as="geometry">
            <Array as="points">
              <mxPoint x="250" y="1312" />
            </Array>
          </mxGeometry>
        </mxCell>
        <mxCell id="edge-L_OAuth_AmadeusAPIClient_8_label" value="Issues tokens to" style="edgeLabel;html=1;align=center;verticalAlign=middle;resizable=0;points=[];" parent="edge-L_OAuth_AmadeusAPIClient_8" vertex="1" connectable="0">
          <mxGeometry x="-0.2" y="10" relative="1" as="geometry">
            <mxPoint as="offset" />
          </mxGeometry>
        </mxCell>
        <mxCell id="edge-L_TokenManager_DateFormatter_10" style="edgeStyle=orthogonalEdgeStyle;rounded=1;orthogonalLoop=1;jettySize=auto;html=1;strokeColor=#808080;strokeWidth=2;jumpStyle=arc;jumpSize=10;spacing=15;labelBackgroundColor=white;labelBorderColor=none" parent="1" source="TokenManager" target="DateFormatter" edge="1">
          <mxGeometry relative="1" as="geometry" />
        </mxCell>
        <mxCell id="edge-L_TokenManager_DateFormatter_10_label" value="Uses" style="edgeLabel;html=1;align=center;verticalAlign=middle;resizable=0;points=[];" parent="edge-L_TokenManager_DateFormatter_10" vertex="1" connectable="0">
          <mxGeometry x="-0.2" y="10" relative="1" as="geometry">
            <mxPoint x="-2" y="18" as="offset" />
          </mxGeometry>
        </mxCell>
        <mxCell id="edge-L_TokenManager_DateFormatter_4" style="edgeStyle=orthogonalEdgeStyle;rounded=1;orthogonalLoop=1;jettySize=auto;html=1;strokeColor=#808080;strokeWidth=2;jumpStyle=arc;jumpSize=10;spacing=15;labelBackgroundColor=white;labelBorderColor=none" parent="1" source="TokenManager" target="DateFormatter" edge="1">
          <mxGeometry relative="1" as="geometry" />
        </mxCell>
        <mxCell id="edge-L_TokenManager_DateFormatter_4_label" value="Formats dates using" style="edgeLabel;html=1;align=center;verticalAlign=middle;resizable=0;points=[];" parent="edge-L_TokenManager_DateFormatter_4" vertex="1" connectable="0">
          <mxGeometry x="-0.2" y="10" relative="1" as="geometry">
            <mxPoint x="-72" as="offset" />
          </mxGeometry>
        </mxCell>
        <mxCell id="edge-L_TokenManager_TokenStorage_3" style="edgeStyle=orthogonalEdgeStyle;rounded=1;orthogonalLoop=1;jettySize=auto;html=1;strokeColor=#808080;strokeWidth=2;jumpStyle=arc;jumpSize=10;spacing=15;labelBackgroundColor=white;labelBorderColor=none" parent="1" source="TokenManager" target="TokenStorage" edge="1">
          <mxGeometry relative="1" as="geometry" />
        </mxCell>
        <mxCell id="edge-L_TokenManager_TokenStorage_3_label" value="Stores tokens in" style="edgeLabel;html=1;align=center;verticalAlign=middle;resizable=0;points=[];" parent="edge-L_TokenManager_TokenStorage_3" vertex="1" connectable="0">
          <mxGeometry x="-0.2" y="10" relative="1" as="geometry">
            <mxPoint x="16" y="-32" as="offset" />
          </mxGeometry>
        </mxCell>
        <mxCell id="edge-L_User_FrontendApp_0" style="edgeStyle=orthogonalEdgeStyle;rounded=1;orthogonalLoop=1;jettySize=auto;html=1;strokeColor=#808080;strokeWidth=2;jumpStyle=arc;jumpSize=10;spacing=15;labelBackgroundColor=white;labelBorderColor=none" parent="1" source="User" target="FrontendApp" edge="1">
          <mxGeometry relative="1" as="geometry" />
        </mxCell>
        <mxCell id="edge-L_User_FrontendApp_0_label" value="Uses" style="edgeLabel;html=1;align=center;verticalAlign=middle;resizable=0;points=[];" parent="edge-L_User_FrontendApp_0" vertex="1" connectable="0">
          <mxGeometry x="-0.2" y="10" relative="1" as="geometry">
            <mxPoint as="offset" />
          </mxGeometry>
        </mxCell>
        <mxCell id="LocationSearch" value="Location Search Service&lt;br&gt;(JavaScript)" style="rounded=1;whiteSpace=wrap;html=1;fillColor=#f5f5f5" parent="1" vertex="1">
          <mxGeometry x="38" y="630" width="120" height="60" as="geometry" />
        </mxCell>
      </root>
    </mxGraphModel>
  </diagram>
</mxfile>
